<svg width="350" height="366" viewBox="0 0 350 366" fill="none" xmlns="http://www.w3.org/2000/svg">
<path fill-rule="evenodd" clip-rule="evenodd" d="M117.327 1.64302C117.327 5.2217 125.316 13.3833 132.573 17.2188C136.204 19.1388 139.178 21.1095 139.178 21.6C139.178 22.597 118.227 31.5989 115.904 31.5989C115.084 31.5989 114.414 32.3419 114.414 33.2504C114.414 34.9221 135.616 34.3184 148.646 32.2766L154.473 31.3638L150.831 34.3881C143.32 40.6254 133.089 42.4307 105.834 42.3233C77.3142 42.213 76.6091 42.8443 97.1808 50.0829C103.45 52.2888 108.581 54.5323 108.582 55.0678C108.585 55.6048 106.288 56.8006 103.478 57.7235C95.5871 60.3183 81.862 71.3678 76.0017 79.8443C69.8209 88.7852 69.6141 89.6618 73.9492 88.5327C76.9457 87.752 76.8481 88.1148 72.6542 93.3841C70.1603 96.5173 66.6759 100.379 64.9118 101.967C54.8824 110.987 61.3429 108.838 95.7663 91.705C116.038 81.6162 132.882 73.1209 133.198 72.8277C133.515 72.5346 132.204 71.6958 130.284 70.9615L126.796 69.6293L131.166 67.882C133.569 66.9213 145.861 63.4921 158.479 60.2603C177.983 55.2666 181.422 53.9722 181.422 51.627C181.422 47.7029 185.26 40.8199 188.043 39.7561C195.991 36.7187 204.951 40.965 211.937 51.0799C216.958 58.3519 221.41 59.7509 222.672 54.4554C223.1 52.6603 223.907 47.3967 224.466 42.7587C225.228 36.4227 225.98 34.5289 227.487 35.1398C228.59 35.5868 230.477 36.3487 231.678 36.8334C233.432 37.5401 233.863 36.3951 233.863 31.0285C233.863 27.3512 234.397 24.3428 235.048 24.3428C235.699 24.3428 238.158 26.344 240.51 28.7908C244.439 32.8745 244.831 34.2473 245.306 45.5508C245.658 53.9736 246.349 57.6829 247.491 57.2983C248.578 56.9312 249.159 52.1959 249.159 43.6918C249.159 31.8804 248.78 30.078 245.138 24.6026C237.236 12.7186 223.601 7.19534 198.174 5.5787C185.598 4.77908 175.993 5.06062 163.942 6.58003C140.238 9.56807 142.337 9.86992 119.148 0.126504C118.137 -0.297249 117.327 0.377563 117.327 1.64302ZM191.255 44.7759C187.837 46.7597 188.04 48.5011 191.805 49.4821C194.165 50.0974 194.745 51.1292 194.231 53.8053C193.778 56.1664 194.435 57.8672 196.229 58.9846C197.699 59.8989 198.903 61.6215 198.903 62.8115C198.903 64.0029 199.316 64.9767 199.823 64.9767C201.396 64.9767 210.556 58.989 210.55 57.9644C210.533 54.7674 203.908 47.0717 199.645 45.2983C193.791 42.8603 194.481 42.9038 191.255 44.7759ZM158.864 64.3991C145.216 67.763 138.18 70.7815 143.985 70.7815C149.325 70.7815 145.698 73.3356 127.024 82.7235C92.9534 99.8521 67.1595 119.1 58.4076 133.928C51.9413 144.885 49.2522 159.81 50.1772 179.622L50.4817 186.153L54.5095 175.041C58.4586 164.148 65.0997 151.922 70.9513 144.767C73.3724 141.807 73.7249 141.682 72.9324 144.068C64.7705 168.645 66.8055 189.978 78.9909 207.558L82.7623 213H95.3788H107.997L107.432 203.93C106.444 188.064 115.982 157.667 127.355 140.442C134.299 129.923 150.107 113.438 164.622 101.579C178.968 89.8606 180.008 88.8984 176.292 90.7951C171.01 93.49 156.145 104.943 146.068 114.081C140.645 119.001 135.884 123.025 135.491 123.025C133.024 123.025 149.49 103.836 158.7 95.9745C170.079 86.263 172.814 82.9964 165.762 87.5415C163.558 88.9608 160.281 91.0709 158.479 92.2289C156.677 93.387 155.201 93.7556 155.201 93.0474C155.201 90.3569 164.076 81.2012 171.86 75.8593C179.678 70.4956 181.052 68.0344 179.081 62.9189C177.945 59.9686 176.36 60.0847 158.864 64.3991ZM258.627 68.6773C258.627 69.1155 259.634 71.4128 260.864 73.7826C262.904 77.7125 262.887 78.1711 260.677 79.0157C259.089 79.6223 257.343 78.7385 255.608 76.4499C253.375 73.5025 251.814 72.9932 245.597 73.1775C239.811 73.3502 238.234 72.9133 238.234 71.1385C238.234 69.2186 237.798 69.2737 235.32 71.5071C230.778 75.6024 231.779 76.5864 240.484 76.5864C247.143 76.5864 249.198 77.2191 252.179 80.1883C255.481 83.4781 256.547 83.7118 264.494 82.8831C269.279 82.3854 273.195 81.8441 273.195 81.6786C273.195 81.5147 270.454 78.3423 267.106 74.6301C261.624 68.5525 258.627 66.4482 258.627 68.6773ZM186.939 75.1351C186.203 80.1273 187.237 80.6077 190.644 76.8563C192.489 74.826 192.64 73.8305 191.307 72.5026C188.621 69.8266 187.632 70.4231 186.939 75.1351ZM213.47 94.413C213.47 100.807 213.151 101.36 207.941 104.007C202.186 106.933 191.858 117.175 188.609 123.179C187.577 125.09 185.614 130.245 184.25 134.635C182.073 141.643 181.26 142.674 177.589 143.091C168.245 144.152 170.988 147.552 188.104 156.12C192.98 158.562 199.156 163.039 201.828 166.071C207.599 172.619 214.871 187.865 219.237 202.567C222.203 212.56 222.61 213.149 226.265 212.726C229.546 212.344 230.331 211.333 231.348 206.179C232.783 198.9 234.692 199.138 239.709 207.227L243.291 213H253.172H263.053L262.186 209.009C259.493 196.61 254.801 183.43 249.71 173.952C243.903 163.145 243.81 159.561 249.383 161.322C250.871 161.793 254.906 165.773 258.351 170.166C261.794 174.56 266.218 178.557 268.181 179.048C273.538 180.387 284.848 176.649 284.848 173.537C284.848 169.586 276.68 166.12 269.318 166.946C263.459 167.605 262.649 167.255 257.906 162.025C254.12 157.85 252.801 155.082 252.801 151.319C252.801 147.944 252.12 146.244 250.767 146.244C249.648 146.244 246.809 144.062 244.458 141.394C240.337 136.719 240.135 136.653 238.844 139.58C236.972 143.827 230.255 144.129 220.288 140.413C209.995 136.576 207.643 133.359 207.643 123.119C207.643 115.344 207.837 114.969 215.655 107.603C220.061 103.453 223.667 99.4748 223.667 98.7637C223.667 98.0541 221.372 95.2576 218.568 92.5497L213.47 87.6272V94.413ZM261.333 101.662C253.548 107.575 251.255 113.929 254.901 119.472C258.094 124.327 266.164 127.688 272.973 126.998L278.293 126.46L273.633 125.302C269.215 124.203 263.254 119.383 264.626 118.017C264.977 117.667 267.869 117.982 271.05 118.716C282.319 121.32 286.363 119.398 276.838 115.966C270.504 113.685 268.277 109.732 269.251 102.499C269.665 99.4211 269.461 96.9033 268.8 96.9033C268.137 96.9033 264.776 99.0438 261.333 101.662ZM290.168 105.806C295.376 114.598 295.46 117.664 290.684 124.234C288.308 127.502 284.711 131.255 282.692 132.573C279.965 134.352 279.021 136.232 279.021 139.881C279.021 144.134 279.504 144.793 282.612 144.793C286.952 144.793 289.218 141.068 289.218 133.937C289.218 129.693 290.433 127.464 295.586 122.259C302.476 115.296 306.081 108.43 304.713 104.878C304.007 103.043 303.341 102.959 301.013 104.409C298.748 105.818 297.344 105.76 294.06 104.124C291.798 102.998 289.335 101.797 288.586 101.456C287.837 101.116 288.55 103.074 290.168 105.806ZM162.473 110.485C148.868 120.435 132.89 141.477 120.444 165.836C111.356 183.625 109.43 197.894 114.594 209.188L116.338 213H161.43H206.521L203.943 209.009C202.525 206.815 198.761 201.89 195.58 198.067C192.397 194.243 190.135 190.775 190.553 190.358C192.036 188.882 201.879 198.896 205.823 205.895C208.763 211.109 210.699 212.997 213.105 212.999C217.091 213 217.167 211.37 213.649 201.184C210.075 190.839 205.219 181.404 200.681 176C195.023 169.262 181.635 159.153 170.073 152.892C164.297 149.765 159.571 146.397 159.571 145.408C159.571 144.42 162.836 140.686 166.826 137.113L174.082 130.615L171.828 123.058C170.103 117.271 169.939 114.466 171.129 111.066C173.062 105.544 173.065 105.603 170.861 105.647C169.86 105.666 166.084 107.844 162.473 110.485ZM248.602 130.801C247.583 132.024 246.965 134.529 247.226 136.369C247.737 139.959 247.096 139.884 266.526 138.666C270.469 138.418 273.92 137.546 274.194 136.727C274.468 135.909 271.241 134.075 267.024 132.651C255.34 128.709 250.731 128.246 248.602 130.801Z" fill="#E0F4F5"/>
<path d="M7.24 257.506C7.24 255.058 7.546 252.754 8.158 250.594C8.77 248.434 9.814 246.562 11.29 244.978C12.766 243.358 14.764 242.08 17.284 241.144C19.804 240.208 22.972 239.74 26.788 239.74H28.732C31.18 239.74 33.556 239.902 35.86 240.226C38.164 240.514 40.432 240.946 42.664 241.522V250.324C41.404 249.964 40.126 249.658 38.83 249.406C37.57 249.154 36.31 248.956 35.05 248.812C33.826 248.632 32.638 248.506 31.486 248.434C30.37 248.362 29.362 248.326 28.462 248.326C25.654 248.326 23.476 248.596 21.928 249.136C20.416 249.64 19.3 250.36 18.58 251.296C17.896 252.232 17.482 253.348 17.338 254.644C17.23 255.94 17.176 257.362 17.176 258.91C17.176 260.458 17.23 261.88 17.338 263.176C17.482 264.472 17.896 265.606 18.58 266.578C19.3 267.514 20.416 268.252 21.928 268.792C23.476 269.296 25.654 269.548 28.462 269.548C29.362 269.548 30.37 269.512 31.486 269.44C32.638 269.368 33.826 269.26 35.05 269.116C36.31 268.936 37.57 268.72 38.83 268.468C40.126 268.18 41.404 267.856 42.664 267.496V276.352C40.432 276.892 38.164 277.306 35.86 277.594C33.556 277.918 31.18 278.08 28.732 278.08H26.788C22.972 278.08 19.804 277.612 17.284 276.676C14.764 275.74 12.766 274.48 11.29 272.896C9.814 271.276 8.77 269.386 8.158 267.226C7.546 265.066 7.24 262.762 7.24 260.314V257.506ZM53.1864 257.506C53.1864 255.058 53.4924 252.754 54.1044 250.594C54.7164 248.434 55.7784 246.562 57.2904 244.978C58.8384 243.358 60.9084 242.08 63.5004 241.144C66.0924 240.208 69.3504 239.74 73.2744 239.74H75.2184C79.1424 239.74 82.4004 240.208 84.9924 241.144C87.5844 242.08 89.6364 243.358 91.1484 244.978C92.6964 246.562 93.7764 248.434 94.3884 250.594C95.0004 252.754 95.3064 255.058 95.3064 257.506V260.314C95.3064 262.762 95.0004 265.066 94.3884 267.226C93.7764 269.386 92.6964 271.276 91.1484 272.896C89.6364 274.48 87.5844 275.74 84.9924 276.676C82.4004 277.612 79.1424 278.08 75.2184 278.08H73.2744C69.3504 278.08 66.0924 277.612 63.5004 276.676C60.9084 275.74 58.8384 274.48 57.2904 272.896C55.7784 271.276 54.7164 269.386 54.1044 267.226C53.4924 265.066 53.1864 262.762 53.1864 260.314V257.506ZM62.9064 258.91C62.9064 260.278 62.9604 261.61 63.0684 262.906C63.2124 264.166 63.6264 265.282 64.3104 266.254C65.0304 267.226 66.1464 268 67.6584 268.576C69.2064 269.152 71.4024 269.44 74.2464 269.44C77.0904 269.44 79.2684 269.152 80.7804 268.576C82.3284 268 83.4444 267.226 84.1284 266.254C84.8484 265.282 85.2624 264.166 85.3704 262.906C85.5144 261.61 85.5864 260.278 85.5864 258.91C85.5864 257.542 85.5144 256.228 85.3704 254.968C85.2624 253.708 84.8484 252.592 84.1284 251.62C83.4444 250.648 82.3284 249.874 80.7804 249.298C79.2684 248.722 77.0904 248.434 74.2464 248.434C71.4024 248.434 69.2064 248.722 67.6584 249.298C66.1464 249.874 65.0304 250.648 64.3104 251.62C63.6264 252.592 63.2124 253.708 63.0684 254.968C62.9604 256.228 62.9064 257.542 62.9064 258.91ZM136.152 264.04V240.82H145.872V277H136.152L117.198 253.78V277H107.478V240.82H117.198L136.152 264.04ZM157.999 257.506C157.999 255.058 158.305 252.754 158.917 250.594C159.529 248.434 160.573 246.562 162.049 244.978C163.525 243.358 165.523 242.08 168.043 241.144C170.563 240.208 173.731 239.74 177.547 239.74H179.491C181.939 239.74 184.315 239.902 186.619 240.226C188.923 240.514 191.191 240.946 193.423 241.522V250.324C192.163 249.964 190.885 249.658 189.589 249.406C188.329 249.154 187.069 248.956 185.809 248.812C184.585 248.632 183.397 248.506 182.245 248.434C181.129 248.362 180.121 248.326 179.221 248.326C176.413 248.326 174.235 248.596 172.687 249.136C171.175 249.64 170.059 250.36 169.339 251.296C168.655 252.232 168.241 253.348 168.097 254.644C167.989 255.94 167.935 257.362 167.935 258.91C167.935 260.458 167.989 261.88 168.097 263.176C168.241 264.472 168.655 265.606 169.339 266.578C170.059 267.514 171.175 268.252 172.687 268.792C174.235 269.296 176.413 269.548 179.221 269.548C180.121 269.548 181.129 269.512 182.245 269.44C183.397 269.368 184.585 269.26 185.809 269.116C187.069 268.936 188.329 268.72 189.589 268.468C190.885 268.18 192.163 267.856 193.423 267.496V276.352C191.191 276.892 188.923 277.306 186.619 277.594C184.315 277.918 181.939 278.08 179.491 278.08H177.547C173.731 278.08 170.563 277.612 168.043 276.676C165.523 275.74 163.525 274.48 162.049 272.896C160.573 271.276 159.529 269.386 158.917 267.226C158.305 265.066 157.999 262.762 157.999 260.314V257.506ZM203.946 257.506C203.946 255.058 204.252 252.754 204.864 250.594C205.476 248.434 206.538 246.562 208.05 244.978C209.598 243.358 211.668 242.08 214.26 241.144C216.852 240.208 220.11 239.74 224.034 239.74H225.978C229.902 239.74 233.16 240.208 235.752 241.144C238.344 242.08 240.396 243.358 241.908 244.978C243.456 246.562 244.536 248.434 245.148 250.594C245.76 252.754 246.066 255.058 246.066 257.506V260.314C246.066 262.762 245.76 265.066 245.148 267.226C244.536 269.386 243.456 271.276 241.908 272.896C240.396 274.48 238.344 275.74 235.752 276.676C233.16 277.612 229.902 278.08 225.978 278.08H224.034C220.11 278.08 216.852 277.612 214.26 276.676C211.668 275.74 209.598 274.48 208.05 272.896C206.538 271.276 205.476 269.386 204.864 267.226C204.252 265.066 203.946 262.762 203.946 260.314V257.506ZM213.666 258.91C213.666 260.278 213.72 261.61 213.828 262.906C213.972 264.166 214.386 265.282 215.07 266.254C215.79 267.226 216.906 268 218.418 268.576C219.966 269.152 222.162 269.44 225.006 269.44C227.85 269.44 230.028 269.152 231.54 268.576C233.088 268 234.204 267.226 234.888 266.254C235.608 265.282 236.022 264.166 236.13 262.906C236.274 261.61 236.346 260.278 236.346 258.91C236.346 257.542 236.274 256.228 236.13 254.968C236.022 253.708 235.608 252.592 234.888 251.62C234.204 250.648 233.088 249.874 231.54 249.298C230.028 248.722 227.85 248.434 225.006 248.434C222.162 248.434 219.966 248.722 218.418 249.298C216.906 249.874 215.79 250.648 215.07 251.62C214.386 252.592 213.972 253.708 213.828 254.968C213.72 256.228 213.666 257.542 213.666 258.91ZM286.101 277L278.865 265.66C276.921 265.66 275.049 265.642 273.249 265.606C271.449 265.57 269.685 265.408 267.957 265.12V277H258.237V240.82C261.333 240.46 264.573 240.19 267.957 240.01C271.377 239.83 274.725 239.74 278.001 239.74H279.513C282.537 239.74 285.039 240.064 287.019 240.712C288.999 241.324 290.583 242.17 291.771 243.25C292.959 244.33 293.787 245.59 294.255 247.03C294.723 248.47 294.957 250 294.957 251.62V253.78C294.957 256.048 294.507 258.118 293.607 259.99C292.707 261.826 291.105 263.248 288.801 264.256L295.497 274.84V277H286.101ZM278.109 248.38C276.849 248.38 275.283 248.416 273.411 248.488C271.575 248.56 269.757 248.686 267.957 248.866V256.534C269.649 256.75 271.251 256.894 272.763 256.966C274.275 257.002 275.499 257.02 276.435 257.02C278.595 257.02 280.269 256.93 281.457 256.75C282.645 256.534 283.509 256.228 284.049 255.832C284.625 255.436 284.967 254.932 285.075 254.32C285.183 253.708 285.237 252.97 285.237 252.106C285.237 251.638 285.201 251.188 285.129 250.756C285.057 250.288 284.787 249.874 284.319 249.514C283.887 249.154 283.185 248.884 282.213 248.704C281.241 248.488 279.873 248.38 278.109 248.38ZM346.868 260.314C346.868 262.762 346.544 265.066 345.896 267.226C345.248 269.386 344.114 271.276 342.494 272.896C340.874 274.48 338.696 275.74 335.96 276.676C333.26 277.612 329.84 278.08 325.7 278.08H323.756C320.984 278.08 318.248 277.99 315.548 277.81C312.848 277.63 310.22 277.36 307.664 277V240.874C310.22 240.478 312.848 240.19 315.548 240.01C318.248 239.83 320.984 239.74 323.756 239.74H325.7C329.84 239.74 333.26 240.208 335.96 241.144C338.696 242.08 340.874 243.358 342.494 244.978C344.114 246.562 345.248 248.434 345.896 250.594C346.544 252.754 346.868 255.058 346.868 257.506V260.314ZM324.026 269.548C327.266 269.548 329.75 269.296 331.478 268.792C333.242 268.252 334.52 267.514 335.312 266.578C336.14 265.606 336.608 264.472 336.716 263.176C336.86 261.88 336.932 260.458 336.932 258.91C336.932 257.362 336.86 255.94 336.716 254.644C336.608 253.348 336.14 252.232 335.312 251.296C334.52 250.36 333.242 249.64 331.478 249.136C329.75 248.596 327.266 248.326 324.026 248.326C323.09 248.326 322.046 248.344 320.894 248.38C319.778 248.416 318.608 248.47 317.384 248.542V269.332C318.608 269.404 319.778 269.458 320.894 269.494C322.046 269.53 323.09 269.548 324.026 269.548Z" fill="#E0F4F5"/>
<line x1="6" y1="307" x2="344" y2="307" stroke="#E0F4F5" stroke-width="12" stroke-linecap="round"/>
<path d="M76.1 359V338.9H81.5V354.2H95.33V359H76.1ZM102.713 359V357.8L111.653 338.9H117.053L125.993 357.8V359H121.133L119.393 355.1H109.283L107.573 359H102.713ZM117.413 350.6L114.353 343.73L111.293 350.6H117.413ZM134.628 338.9L138.648 352.13L142.758 338.9H146.568L150.588 352.13L154.698 338.9H159.378V340.1L152.478 359H148.788L144.588 346.01L140.538 359H136.848L129.948 340.1V338.9H134.628ZM198.115 343.7H184.285V346.7H195.115V351.5H184.285V359H178.885V338.9H198.115V343.7ZM211.578 338.9V359H206.178V338.9H211.578ZM235.768 359L231.748 352.7C230.668 352.7 229.628 352.69 228.628 352.67C227.628 352.65 226.648 352.56 225.688 352.4V359H220.288V338.9C222.008 338.7 223.808 338.55 225.688 338.45C227.588 338.35 229.448 338.3 231.268 338.3H232.108C233.788 338.3 235.178 338.48 236.278 338.84C237.378 339.18 238.258 339.65 238.918 340.25C239.578 340.85 240.038 341.55 240.298 342.35C240.558 343.15 240.688 344 240.688 344.9V346.1C240.688 347.36 240.438 348.51 239.938 349.55C239.438 350.57 238.548 351.36 237.268 351.92L240.988 357.8V359H235.768ZM231.328 343.1C230.628 343.1 229.758 343.12 228.718 343.16C227.698 343.2 226.688 343.27 225.688 343.37V347.63C226.628 347.75 227.518 347.83 228.358 347.87C229.198 347.89 229.878 347.9 230.398 347.9C231.598 347.9 232.528 347.85 233.188 347.75C233.848 347.63 234.328 347.46 234.628 347.24C234.948 347.02 235.138 346.74 235.198 346.4C235.258 346.06 235.288 345.65 235.288 345.17C235.288 344.91 235.268 344.66 235.228 344.42C235.188 344.16 235.038 343.93 234.778 343.73C234.538 343.53 234.148 343.38 233.607 343.28C233.068 343.16 232.308 343.1 231.328 343.1ZM260.437 354.89L254.797 347V359H249.397V338.9H254.797L261.817 349.19L268.837 338.9H274.237V359H268.837V347L263.197 354.89H260.437Z" fill="#E0F4F5"/>
</svg>
